<svg height="128" viewBox="0 0 128 128" width="128" xmlns="http://www.w3.org/2000/svg"><path d="M128 112c0 8.8-7.2 16-16 16H16c-8.8 0-16-7.2-16-16V16C0 7.2 7.2 0 16 0h96c8.8 0 16 7.2 16 16v96z" fill="#0076B4"/><path d="M38.894 109.068H19.89V47.984h19.004v61.084zm-9.497-69.429a11.005 11.005 0 0 1-11.014-11.011 11.004 11.004 0 0 1 11.014-11.009c6.073 0 11.003 4.933 11.003 11.009 0 6.078-4.93 11.011-11.003 11.011zM110 109.068H91.017V79.363c0-7.084-.122-16.195-9.864-16.195-9.879 0-11.387 7.718-11.387 15.687v30.213H50.804V47.984h18.198v8.351h.261c2.531-4.802 8.726-9.866 17.962-9.866 19.223 0 22.775 12.648 22.775 29.1v33.499z" fill="#FFF"/></svg>