<svg viewBox="0 0 128 128" xmlns="http://www.w3.org/2000/svg"><g clip-rule="evenodd"><path fill="none" d="M0 0h128v128H0z"/><g fill-rule="evenodd"><path d="M101.991 52.29L73.278 10.538l-8.994 6.08 28.714 41.751 8.993-6.079zm-10.763 7.56L47.332 34.177 41.8 43.471l43.898 25.674 5.53-9.295zm-6.425 12.345L35.589 59.077l-2.828 10.422 49.217 13.12 2.825-10.424zm-3.348 14.084l-50.746-4.636-.999 10.749 50.747 4.632.998-10.745zm33.212-36.49L105.949 0 95.223 1.845l8.717 49.789 10.727-1.845zm-34.438 61.124l-50.964.024-.004-10.793 50.962-.026.006 10.795z" fill="#FF810F"/><path fill="#BEBCBC" d="M88.884 75.409v44.123H22.04V75.409h-8.707V128h84.214V75.409z"/></g></g></svg>