<?xml version="1.0" ?><svg height="1024" preserveAspectRatio="xMidYMid meet" width="1024" xmlns="http://www.w3.org/2000/svg"><g><title/><rect fill="none" height="1026" id="canvas_background" width="1026" x="-1" y="-1"/></g><g><title/><g fill="#000000" id="svg_1" transform="translate(0,1024) scale(0.10000000149011612,-0.10000000149011612) "><path d="m4820,9439c-1036,-77 -1981,-503 -2723,-1228c-976,-952 -1444,-2300 -1271,-3654c216,-1693 1410,-3103 3050,-3602c1268,-386 2679,-157 3754,608c1321,941 2008,2502 1804,4100c-216,1693 -1410,3103 -3050,3602c-488,149 -1057,212 -1564,174zm2555,-1665c47,-22 72,-73 59,-121c-6,-21 -410,-744 -898,-1607l-888,-1570l20,-40c11,-23 266,-491 567,-1041c571,-1044 576,-1053 544,-1111c-28,-54 -32,-54 -516,-54c-502,0 -491,-1 -563,74c-45,45 -1194,2150 -1188,2174c7,25 1775,3160 1808,3204c15,21 39,47 54,59c59,47 76,48 534,49c372,0 439,-2 467,-16zm-3347,-1101c74,-35 113,-94 401,-598c281,-491 284,-497 269,-523c-9,-15 -206,-364 -438,-777c-232,-412 -438,-769 -456,-792c-19,-23 -57,-53 -87,-68l-53,-26l-446,3l-446,3l-26,24c-35,33 -51,83 -37,121c5,17 202,370 436,784l425,754l-276,478c-312,540 -311,539 -251,599l35,35l457,0c412,0 461,-2 493,-17z" fill="#126567" id="svg_2"/></g></g></svg>